<svg width="64" height="64" viewBox="0 0 64 64" fill="none" xmlns="http://www.w3.org/2000/svg">
<circle cx="32" cy="32" r="30" fill="#FFCC4D"/>
<path fill-rule="evenodd" clip-rule="evenodd" d="M24 60.9215C21.1392 60.132 18.4498 58.9293 16 57.3818V20H24V60.9215Z" fill="#008CFF"/>
<path d="M23 59V20C23 19.4477 22.5523 19 22 19C21.4477 19 21 19.4477 21 20V59C21 59.5523 21.4477 60 22 60C22.5523 60 23 59.5523 23 59Z" fill="#47ACFF"/>
<path fill-rule="evenodd" clip-rule="evenodd" d="M40 60.9215V20H48V57.3818C45.5502 58.9293 42.8608 60.132 40 60.9215Z" fill="#008CFF"/>
<path fill-rule="evenodd" clip-rule="evenodd" d="M45 59.0447V20C45 19.4477 45.4477 19 46 19C46.5523 19 47 19.4477 47 20V57.9865C46.3484 58.3634 45.6814 58.7166 45 59.0447Z" fill="#47ACFF"/>
<path fill-rule="evenodd" clip-rule="evenodd" d="M38.0271 23C38.0092 22.7987 38 22.5947 38 22.3884C38 18.8602 40.6863 16 44 16C47.3137 16 50 18.8602 50 22.3884C50 22.5947 49.9908 22.7987 49.9729 23C48.603 21.6578 46.4372 20.7913 44 20.7913C41.5628 20.7913 39.397 21.6578 38.0271 23Z" fill="#3E1E00"/>
<path fill-rule="evenodd" clip-rule="evenodd" d="M14.0693 22.9397C14.0532 22.7491 14.0449 22.5561 14.0449 22.361C14.0449 18.8479 16.7212 16 20.0225 16C23.3238 16 26 18.8479 26 22.361C26 22.5766 25.9899 22.7898 25.9702 22.9999C24.6072 21.6463 22.4354 20.7705 19.989 20.7705C17.5791 20.7705 15.4356 21.6204 14.0693 22.9397Z" fill="#3E1E00"/>
<ellipse cx="32" cy="42.5" rx="7" ry="8.5" fill="#3E1E00"/>
</svg>
