<svg width="64" height="64" viewBox="0 0 64 64" fill="none" xmlns="http://www.w3.org/2000/svg">
<circle cx="32" cy="32" r="30" fill="#FFCC4D"/>
<path fill-rule="evenodd" clip-rule="evenodd" d="M16 57.2953V19H24V60.9215C21.1392 60.1127 18.4498 58.8806 16 57.2953Z" fill="#008CFF"/>
<path fill-rule="evenodd" clip-rule="evenodd" d="M40 60.9215V19H48V57.2953C45.5502 58.8806 42.8608 60.1127 40 60.9215Z" fill="#008CFF"/>
<ellipse cx="32" cy="42.5" rx="7" ry="8.5" fill="#3E1E00"/>
<path fill-rule="evenodd" clip-rule="evenodd" d="M26.0001 21.9999C27.4424 21.5879 27.4421 21.5869 27.4418 21.586L27.4413 21.584L27.44 21.5797L27.4373 21.5703L27.4303 21.5474C27.4251 21.5304 27.4186 21.5099 27.4107 21.4863C27.3949 21.439 27.3736 21.3787 27.3459 21.3073C27.2906 21.1646 27.2092 20.976 27.0945 20.7571C27.0166 20.6083 26.9228 20.4445 26.8106 20.2709C26.5738 19.8822 26.2564 19.4338 25.8424 18.9841C24.6915 17.7337 22.8107 16.4999 20.0001 16.4999C16.2076 16.4999 14.1889 18.6861 13.2547 20.172C13.1133 20.3824 12.9982 20.5804 12.9057 20.7571C12.791 20.976 12.7096 21.1646 12.6543 21.3073C12.6266 21.3787 12.6053 21.439 12.5895 21.4863C12.5816 21.5099 12.5751 21.5304 12.5699 21.5474L12.5629 21.5703L12.5602 21.5797L12.5589 21.584L12.5584 21.586C12.5581 21.5869 12.5578 21.5879 14.0001 21.9999L12.5578 21.5879L15.4198 22.4842C15.4196 22.4848 15.4195 22.4851 15.4195 22.4851C15.4196 22.4851 15.4984 22.2617 15.6851 21.9371C15.8021 21.7503 15.9649 21.5314 16.1858 21.3106C16.7763 20.7201 17.8934 19.9999 20.0001 19.9999C22.1068 19.9999 23.2239 20.7201 23.8144 21.3106C24.0081 21.5042 24.1571 21.6963 24.2698 21.8667C24.3153 21.9428 24.3558 22.0148 24.3915 22.0816C24.4682 22.2252 24.5205 22.3405 24.5513 22.4133C24.5667 22.4495 24.5765 22.4748 24.5813 22.4873C24.5836 22.4935 24.5847 22.4965 24.5845 22.496L24.5834 22.4927L24.5821 22.489L24.5813 22.4867L24.5808 22.4853C24.5807 22.4851 24.5807 22.4849 24.6132 22.4736L27.4424 21.5879L26.0001 21.9999Z" fill="#3E1E00"/>
<path d="M12.5 22C12.5 21.1716 13.1716 20.5 14 20.5C14.8284 20.5 15.5 21.1716 15.5 22C15.5 22.8284 14.8284 23.5 14 23.5C13.1716 23.5 12.5 22.8284 12.5 22Z" fill="#3E1E00"/>
<path d="M24.5 22C24.5 21.1716 25.1716 20.5 26 20.5C26.8284 20.5 27.5 21.1716 27.5 22C27.5 22.8284 26.8284 23.5 26 23.5C25.1716 23.5 24.5 22.8284 24.5 22Z" fill="#3E1E00"/>
<path fill-rule="evenodd" clip-rule="evenodd" d="M50.0001 21.9999C51.4424 21.5879 51.4421 21.5869 51.4418 21.586L51.4413 21.584L51.44 21.5797L51.4373 21.5703L51.4303 21.5474C51.4251 21.5304 51.4186 21.5099 51.4107 21.4863C51.3949 21.439 51.3736 21.3787 51.3459 21.3073C51.2906 21.1646 51.2092 20.976 51.0945 20.7571C51.0166 20.6083 50.9228 20.4445 50.8106 20.2709C50.5738 19.8822 50.2564 19.4338 49.8424 18.9841C48.6915 17.7337 46.8107 16.4999 44.0001 16.4999C40.2076 16.4999 38.1889 18.6861 37.2547 20.172C37.1133 20.3824 36.9982 20.5804 36.9057 20.7571C36.791 20.976 36.7096 21.1646 36.6543 21.3073C36.6266 21.3787 36.6053 21.439 36.5895 21.4863C36.5816 21.5099 36.5751 21.5304 36.5699 21.5474L36.5629 21.5703L36.5602 21.5797L36.5589 21.584L36.5584 21.586C36.5581 21.5869 36.5578 21.5879 38.0001 21.9999L36.5578 21.5879L39.4198 22.4842C39.4196 22.4848 39.4195 22.4851 39.4195 22.4851C39.4196 22.4851 39.4984 22.2617 39.6851 21.9371C39.8021 21.7503 39.9649 21.5314 40.1858 21.3106C40.7763 20.7201 41.8934 19.9999 44.0001 19.9999C46.1068 19.9999 47.2239 20.7201 47.8144 21.3106C48.0081 21.5042 48.1571 21.6963 48.2698 21.8667C48.3153 21.9428 48.3558 22.0148 48.3915 22.0816C48.4682 22.2252 48.5205 22.3405 48.5513 22.4133C48.5667 22.4495 48.5765 22.4748 48.5813 22.4873C48.5836 22.4935 48.5847 22.4965 48.5845 22.496L48.5834 22.4927L48.5821 22.489L48.5813 22.4867L48.5808 22.4853C48.5807 22.4851 48.5807 22.4849 48.6132 22.4736L51.4424 21.5879L50.0001 21.9999Z" fill="#3E1E00"/>
<path d="M36.5 22C36.5 21.1716 37.1716 20.5 38 20.5C38.8284 20.5 39.5 21.1716 39.5 22C39.5 22.8284 38.8284 23.5 38 23.5C37.1716 23.5 36.5 22.8284 36.5 22Z" fill="#3E1E00"/>
<path d="M48.5 22C48.5 21.1716 49.1716 20.5 50 20.5C50.8284 20.5 51.5 21.1716 51.5 22C51.5 22.8284 50.8284 23.5 50 23.5C49.1716 23.5 48.5 22.8284 48.5 22Z" fill="#3E1E00"/>
</svg>
