<svg width="64" height="64" viewBox="0 0 64 64" fill="none" xmlns="http://www.w3.org/2000/svg">
<circle cx="32" cy="32" r="30" fill="#FFCC4D"/>
<path fill-rule="evenodd" clip-rule="evenodd" d="M42.0001 44C43.1047 44 44.0001 44.8954 44.0001 46C44.0001 46.6861 43.8974 47.5519 43.4784 48.346C43.0149 49.2243 42.1869 49.9501 40.9984 50.1565C39.7455 50.3741 38.8781 50.1398 38.0214 49.8636C37.771 49.7829 37.5354 49.7048 37.3105 49.6303C36.6989 49.4276 36.166 49.251 35.6282 49.1182C35.5476 49.178 35.4665 49.2416 35.3639 49.322C35.3473 49.3349 35.3303 49.3483 35.3126 49.3622C35.1904 49.4578 35.028 49.5844 34.8591 49.7015C34.1076 50.2224 33.2274 50.7926 32.218 51.2024C32.19 51.2137 32.1608 51.2256 32.1304 51.238C31.7561 51.3905 31.2111 51.6125 30.6431 51.7704C30.0439 51.9369 29.202 52.0983 28.3167 51.9261C27.7296 51.8119 27.2459 51.5545 26.9209 51.3556C26.6406 51.184 26.369 50.985 26.1911 50.8546C26.1632 50.8342 26.1377 50.8155 26.1148 50.7988C25.8065 50.5746 25.5004 50.3287 25.2402 50.1197C25.1778 50.0696 25.118 50.0216 25.0615 49.9765C24.7446 49.7237 24.4866 49.5271 24.236 49.3683C24.1966 49.3433 24.1531 49.3153 24.1155 49.2912C24.1008 49.2818 24.0871 49.2729 24.0748 49.2651C24.0671 49.2602 24.0596 49.2554 24.0523 49.2507C23.948 49.3226 23.8333 49.4103 23.6901 49.5235C23.6583 49.5485 23.6228 49.5768 23.5848 49.607C23.4703 49.6982 23.333 49.8075 23.2076 49.9025C22.3271 50.5694 21.0726 50.3962 20.4058 49.5156C19.7389 48.6351 19.9121 47.3807 20.7926 46.7138C20.8274 46.6874 20.8881 46.6393 20.965 46.5784C21.1825 46.4059 21.5305 46.1301 21.7937 45.9493C22.2055 45.6664 22.8582 45.2751 23.6764 45.1633C24.4743 45.0543 25.1357 45.3056 25.5179 45.4881C25.838 45.6409 26.1546 45.8458 26.3143 45.9491C26.3397 45.9656 26.3611 45.9794 26.378 45.9901C26.8222 46.2718 27.2215 46.5828 27.5556 46.8493C27.6356 46.9131 27.711 46.9735 27.7829 47.0313C28.034 47.2328 28.2442 47.4015 28.4675 47.5638C28.5058 47.5917 28.5416 47.6179 28.5754 47.6425C28.7599 47.7771 28.8814 47.8658 29.0089 47.9438C29.0547 47.9718 29.0875 47.9896 29.1085 48.0002C29.165 47.9996 29.3091 47.9895 29.5719 47.9165C29.9089 47.8228 30.2551 47.6822 30.6736 47.5123L30.7134 47.4961C31.3001 47.2579 31.8859 46.8954 32.5803 46.4141C32.6421 46.3712 32.7206 46.3113 32.8469 46.2125C32.8612 46.2013 32.8762 46.1895 32.8919 46.1772C32.9988 46.0934 33.1364 45.9855 33.2761 45.8826C33.5679 45.6677 34.083 45.3083 34.7215 45.13C35.1476 45.0111 35.5193 45.0362 35.7145 45.0583C35.8937 45.0786 36.0664 45.1162 36.1185 45.1275C36.1235 45.1286 36.1275 45.1295 36.1302 45.13C37.0248 45.3189 37.9286 45.6194 38.6952 45.8743C38.8893 45.9388 39.0746 46.0004 39.2487 46.0565C39.609 46.1727 39.7777 46.2148 39.9063 46.2325C39.9321 46.2361 39.959 46.239 39.9886 46.2407C39.9957 46.1716 40.0001 46.0913 40.0001 46C40.0001 44.8954 40.8955 44 42.0001 44ZM35.8682 48.9579C35.8682 48.9579 35.8675 48.9582 35.8663 48.9588C35.8676 48.9581 35.8682 48.9578 35.8682 48.9579Z" fill="#3E1E00"/>
<path fill-rule="evenodd" clip-rule="evenodd" d="M20.8749 22.5478C20.4829 22.5972 20.0874 22.7066 19.7815 22.829C18.8932 23.1843 18.103 23.7169 17.6516 24.3257C15.9515 26.6182 16.1696 30.43 18.0717 32.686C18.7042 33.4362 19.7122 34.0452 20.823 34.5108C21.1138 34.6327 21.2643 34.6742 21.3657 34.6881C21.4386 34.6981 21.5173 34.6989 21.6558 34.6562C21.688 34.6462 21.7212 34.636 21.7552 34.6254C22.0465 34.5352 22.3997 34.4258 22.7671 34.3433C23.5754 34.1618 24.3778 34.67 24.5592 35.4783C24.7407 36.2866 24.2325 37.089 23.4242 37.2704C23.1799 37.3253 22.9423 37.3987 22.6335 37.494C22.6029 37.5035 22.5716 37.5132 22.5396 37.523C21.3663 37.8847 20.4548 37.6093 19.6633 37.2776C18.3646 36.7333 16.8543 35.8962 15.7782 34.6198C13.0533 31.388 12.647 26.0378 15.2419 22.5387L16.4467 23.4322L15.2419 22.5387C16.1361 21.3328 17.4706 20.5222 18.6673 20.0435C19.1967 19.8318 19.84 19.6545 20.4997 19.5714C21.1432 19.4902 21.9158 19.4841 22.644 19.7158C23.47 19.9786 24.2879 20.4876 24.9477 21.0933C25.5981 21.6902 26.2278 22.5039 26.4944 23.456C27.1784 25.8988 26.8306 29.4494 24.2596 31.3157C23.8561 31.6087 23.297 31.9373 22.6834 32.1633C22.1085 32.3749 21.2593 32.581 20.4007 32.333C19.3963 32.0428 18.4672 31.3709 17.8689 30.9383C17.8003 30.8887 17.736 30.8422 17.6765 30.7998C17.034 30.3422 16.7496 29.665 16.7565 28.9948C16.7624 28.4277 16.9723 27.9352 17.1401 27.6117C17.408 27.0951 17.8376 26.5419 18.0457 26.2738C18.0892 26.2178 18.123 26.1743 18.1437 26.1461C18.5837 25.546 19.4037 24.951 20.4012 24.951C21.2296 24.951 21.9012 25.6226 21.9012 26.451C21.9012 27.2308 21.3061 27.8717 20.5452 27.9442C20.4878 28.0217 20.4233 28.1054 20.3656 28.1802C20.3595 28.188 20.3535 28.1958 20.3475 28.2035C20.2746 28.2981 20.2037 28.3904 20.1335 28.4857C20.0671 28.5757 20.0076 28.6602 19.9555 28.7388C20.4551 29.089 20.8471 29.3371 21.2242 29.4482C21.2228 29.4477 21.2222 29.4474 21.2222 29.4472C21.2225 29.4443 21.3512 29.4569 21.6467 29.3481C21.9545 29.2347 22.2718 29.0516 22.4972 28.888C23.6567 28.0463 24.1056 26.0511 23.6055 24.2649C23.5407 24.0333 23.3242 23.6752 22.9191 23.3034C22.5234 22.9403 22.0766 22.6835 21.7344 22.5746C21.5753 22.524 21.2832 22.4963 20.8749 22.5478Z" fill="#3E1E00"/>
<path fill-rule="evenodd" clip-rule="evenodd" d="M42.6158 23.0638C41.6583 23.5676 40.7399 24.3431 39.9247 25.1583C39.3389 25.7441 38.3891 25.7441 37.8034 25.1583C37.2176 24.5725 37.2176 23.6228 37.8034 23.037C38.714 22.1264 39.8789 21.114 41.2188 20.4089C42.5674 19.6993 44.1962 19.2496 45.9469 19.6498C48.4431 20.2203 50.4307 22.327 50.5338 25.0598C50.628 27.5575 50.6229 30.2419 49.8654 32.8817C49.6348 33.6854 49.2783 34.8912 48.649 35.9164C48.0047 36.9662 46.9225 38.0591 45.2083 38.153C44.4913 38.1923 43.8451 38.0084 43.3563 37.8296C43.0832 37.7297 42.7089 37.5676 42.4307 37.4471C42.2981 37.3897 42.1873 37.3417 42.1197 37.3144C41.6035 37.106 40.9981 36.8567 40.4022 36.4872C40.3837 36.4758 40.3639 36.4636 40.3429 36.4507C39.9452 36.2058 39.1272 35.7021 38.6696 34.885C38.2242 34.0895 37.8758 33.1981 37.8167 32.2257C37.7558 31.2233 38.0092 30.2398 38.6021 29.301C39.264 28.253 40.2594 27.4685 41.1165 26.9284C41.3405 26.7873 41.6692 26.5865 42.033 26.4167C42.373 26.2579 42.8781 26.0607 43.4362 26.0415C44.4426 26.0068 45.1915 26.6 45.6209 27.0752C46.082 27.5856 46.4273 28.2259 46.6329 28.8459C46.8275 29.4324 46.9683 30.2171 46.7618 30.9644C46.651 31.3652 46.4223 31.8107 45.9928 32.1517C45.5554 32.4989 45.0412 32.6332 44.5524 32.6332C43.7239 32.6332 43.0524 31.9617 43.0524 31.1332C43.0524 30.5791 43.3529 30.0951 43.7999 29.8354C43.7954 29.8207 43.7906 29.8057 43.7855 29.7904C43.6923 29.5093 43.5417 29.2511 43.3999 29.092C43.3703 29.1041 43.3377 29.1184 43.302 29.135C43.1143 29.2227 42.9145 29.3415 42.7157 29.4667C42.034 29.8961 41.4602 30.3936 41.1385 30.903C40.8626 31.3399 40.7906 31.7039 40.8112 32.0438C40.8337 32.4136 40.9737 32.8593 41.287 33.4188C41.2875 33.4196 41.296 33.4336 41.3205 33.4604C41.3486 33.4909 41.3912 33.5314 41.4543 33.5819C41.5894 33.6903 41.7541 33.7956 41.983 33.9375C42.3365 34.1567 42.7243 34.3232 43.2427 34.5325C43.4874 34.6313 43.6583 34.7071 43.8103 34.7745C43.9968 34.8572 44.1551 34.9274 44.3867 35.0121C44.7217 35.1346 44.9207 35.1643 45.0441 35.1575C45.3872 35.1387 45.7194 34.9545 46.0923 34.347C46.4802 33.715 46.7438 32.8835 46.9818 32.0543C47.5993 29.9023 47.6285 27.625 47.5359 25.173C47.4887 23.9225 46.5789 22.8716 45.2785 22.5744C44.4472 22.3844 43.5646 22.5646 42.6158 23.0638ZM43.2892 28.9891C43.2892 28.9886 43.2939 28.9911 43.303 28.998C43.2938 28.9931 43.2892 28.9896 43.2892 28.9891Z" fill="#3E1E00"/>
</svg>
