<svg width="64" height="64" viewBox="0 0 64 64" fill="none" xmlns="http://www.w3.org/2000/svg">
<circle cx="32" cy="32" r="30" fill="#FFCC4D"/>
<circle cx="19" cy="27" r="7" fill="white"/>
<circle cx="45" cy="27" r="7" fill="white"/>
<path fill-rule="evenodd" clip-rule="evenodd" d="M22.7269 21.0736C23.5102 21.8038 24 22.8447 24 24.0001C24 26.2092 22.2091 28.0001 20 28.0001C17.7909 28.0001 16 26.2092 16 24.0001C16 21.9363 17.563 20.2375 19.5698 20.0229C20.7239 20.1159 21.7988 20.4888 22.7269 21.0736Z" fill="#3E1E00"/>
<path fill-rule="evenodd" clip-rule="evenodd" d="M46 28C48.2091 28 50 26.2092 50 24C50 22.8448 49.5103 21.804 48.7271 21.0738C47.7989 20.4888 46.7237 20.1159 45.5695 20.0229C43.5628 20.2377 42 21.9364 42 24C42 26.2092 43.7909 28 46 28Z" fill="#3E1E00"/>
<path fill-rule="evenodd" clip-rule="evenodd" d="M21 46C21 44.8954 21.8954 44 23 44H41C42.1046 44 43 44.8954 43 46C43 47.1046 42.1046 48 41 48H23C21.8954 48 21 47.1046 21 46Z" fill="#3E1E00"/>
</svg>
