<svg width="64" height="64" viewBox="0 0 64 64" fill="none" xmlns="http://www.w3.org/2000/svg">
<circle cx="32" cy="32" r="30" fill="#FFCC4D"/>
<circle cx="20" cy="29" r="4" fill="#3E1E00"/>
<circle cx="44" cy="29" r="4" fill="#3E1E00"/>
<path fill-rule="evenodd" clip-rule="evenodd" d="M21 41C19.0675 41.5153 19.0678 41.5164 19.0681 41.5175L19.0687 41.5199L19.0702 41.5252L19.0736 41.5379L19.0831 41.5715C19.0905 41.5975 19.1003 41.6307 19.1125 41.6706C19.137 41.7503 19.1714 41.8571 19.2172 41.987C19.3086 42.2463 19.446 42.6004 19.6407 43.0176C19.9826 43.7502 20.5092 44.695 21.2867 45.6673C21.4426 45.8734 21.6082 46.0815 21.7839 46.2897C23.7554 48.6263 27.0265 51 32 51C36.9735 51 40.2446 48.6263 42.2161 46.2897C42.3918 46.0815 42.5574 45.8734 42.7132 45.6672C43.4908 44.695 44.0173 43.7502 44.3592 43.0176C44.5539 42.6004 44.6914 42.2463 44.7828 41.987C44.8285 41.8571 44.863 41.7503 44.8874 41.6706C44.8997 41.6307 44.9094 41.5975 44.9169 41.5715L44.9263 41.5379L44.9298 41.5252L44.9312 41.5199L44.9319 41.5175C44.9322 41.5164 44.9324 41.5153 43 41L44.9324 41.5153L41.1384 40.4172C41.0914 40.4022 41.0915 40.402 41.0916 40.4017L41.092 40.4002L41.0928 40.3976L41.0931 40.3968C41.0936 40.3953 41.0939 40.3944 41.0939 40.3942L41.0938 40.3946L41.0931 40.3968C41.0914 40.4019 41.0874 40.414 41.0809 40.4326C41.0679 40.4701 41.045 40.5337 41.0116 40.6197C40.9447 40.792 40.8362 41.0521 40.6803 41.3706C40.4283 41.8853 40.0603 42.5364 39.5557 43.2107C39.4939 43.2871 39.4299 43.3636 39.3636 43.4401C38.0746 44.9274 35.8561 46.5 32 46.5C28.1438 46.5 25.9253 44.9274 24.6364 43.4401C24.5701 43.3636 24.506 43.2871 24.4442 43.2107C23.9396 42.5363 23.5717 41.8853 23.3197 41.3706C23.1638 41.0521 23.0553 40.792 22.9883 40.6197C22.9549 40.5337 22.9321 40.4701 22.9191 40.4326C22.9126 40.414 22.9085 40.4019 22.9069 40.3968L22.9062 40.3946C22.9058 40.3935 22.906 40.3943 22.9069 40.3968L22.9071 40.3976L22.9079 40.4002L22.9084 40.4017C22.9085 40.402 22.9086 40.4022 22.8616 40.4172L19.0675 41.5153L21 41Z" fill="#3E1E00"/>
<path d="M53 26.5091C53 31.4796 48.9706 35.5091 44 35.5091C39.0294 35.5091 35 31.4796 35 26.5091C35 21.5385 39.0294 22.0121 44 22.0121C48.9706 22.0121 53 21.5385 53 26.5091Z" fill="black"/>
<path d="M29 26.5091C29 31.4796 24.9706 35.5091 20 35.5091C15.0294 35.5091 11 31.4796 11 26.5091C11 21.5385 15.0294 22.0121 20 22.0121C24.9706 22.0121 29 21.5385 29 26.5091Z" fill="black"/>
<rect x="20" y="22" width="24" height="5" fill="black"/>
<path fill-rule="evenodd" clip-rule="evenodd" d="M42.6962 35.4153C42.3512 35.3653 42.0126 35.2956 41.6815 35.2076L49.7321 22.2372C50.2208 22.3364 50.6661 22.4757 51.0599 22.6705L42.6962 35.4153ZM48.7808 22.0959L40.4544 34.7838C39.463 34.3584 38.5635 33.7601 37.7936 33.0269L44.6317 22.01C44.8217 22.0088 45.0101 22.0074 45.1967 22.0059C46.5002 21.9956 47.7156 21.986 48.7808 22.0959Z" fill="#222222"/>
<path fill-rule="evenodd" clip-rule="evenodd" d="M21.8443 22L14.7064 33.5L14.884 33.9145C15.6539 34.4474 16.5108 34.8633 17.4292 35.1366L26.0501 22H21.8443ZM27.0857 22L18.7538 35.4235C19.1103 35.4729 19.4734 35.5014 19.8419 35.5077L28.7064 22L27.0857 22Z" fill="#222222"/>
<circle cx="21" cy="41" r="2" fill="#3E1E00"/>
<circle cx="43" cy="41" r="2" fill="#3E1E00"/>
</svg>
