<svg width="64" height="64" viewBox="0 0 64 64" fill="none" xmlns="http://www.w3.org/2000/svg">
<circle cx="32" cy="32" r="30" fill="#FFCC4D"/>
<path fill-rule="evenodd" clip-rule="evenodd" d="M31.6152 45.5499C31.5657 45.5631 31.5171 45.5788 31.4694 45.5969C31.2653 45.6738 31.0862 45.7919 30.9394 45.939C30.6619 46.2168 30.4994 46.598 30.4996 47C30.4995 47.1839 30.5335 47.3634 30.5969 47.5307C30.6738 47.7347 30.7918 47.9136 30.9388 48.0604C31.0859 48.2079 31.2654 48.3264 31.47 48.4034C31.5175 48.4213 31.5659 48.4369 31.6152 48.4501C31.6244 48.4529 31.6394 48.4575 31.6594 48.4641C31.7103 48.4809 31.7918 48.5096 31.8933 48.5518C32.1007 48.6379 32.3685 48.7705 32.6268 48.9555C33.1388 49.322 33.5 49.7954 33.5 50.5C33.5 51.2046 33.1388 51.678 32.6268 52.0445C32.3685 52.2295 32.1007 52.362 31.8933 52.4482C31.7918 52.4904 31.7103 52.5191 31.6594 52.5359C31.6341 52.5442 31.6169 52.5495 31.609 52.5518L31.6056 52.5528C30.8108 52.7693 30.3387 53.587 30.5501 54.3844C30.7624 55.1852 31.5837 55.6622 32.3844 55.4499L32 54C32.3844 55.4499 32.3851 55.4497 32.3857 55.4496L32.387 55.4492L32.3898 55.4485L32.3963 55.4467L32.4126 55.4422C32.425 55.4387 32.4403 55.4344 32.4584 55.429C32.4945 55.4184 32.5417 55.4039 32.5984 55.3852C32.7116 55.3479 32.8645 55.2933 33.0442 55.2187C33.3993 55.0712 33.8815 54.8359 34.3732 54.4839C35.3612 53.7765 36.5 52.5 36.5 50.5C36.5 48.8929 35.7646 47.7529 34.9631 47C35.7646 46.2471 36.5 45.1071 36.5 43.5C36.5 41.5 35.3612 40.2235 34.3732 39.5161C33.8815 39.1641 33.3993 38.9288 33.0442 38.7813C32.8645 38.7067 32.7116 38.6521 32.5984 38.6148C32.5417 38.5961 32.4945 38.5816 32.4584 38.571C32.4403 38.5656 32.425 38.5613 32.4126 38.5578L32.3963 38.5533L32.3898 38.5515L32.3857 38.5504C32.3851 38.5503 32.3845 38.5501 32.0065 39.9756L32.3844 38.5501C31.5837 38.3378 30.7624 38.8148 30.5501 39.6156C30.3387 40.413 30.8108 41.2307 31.6056 41.4472L31.609 41.4482C31.6169 41.4505 31.6341 41.4558 31.6594 41.4641C31.7103 41.4809 31.7918 41.5096 31.8933 41.5518C32.1007 41.6379 32.3685 41.7705 32.6268 41.9555C33.1388 42.322 33.5 42.7954 33.5 43.5C33.5 44.2046 33.1388 44.678 32.6268 45.0445C32.3685 45.2295 32.1007 45.362 31.8933 45.4482C31.7918 45.4904 31.7103 45.5191 31.6594 45.5359C31.6394 45.5425 31.6245 45.5471 31.6152 45.5499Z" fill="#3E1E00"/>
<path fill-rule="evenodd" clip-rule="evenodd" d="M15.6123 28.4948C15.3408 29.272 14.4927 29.6859 13.7122 29.4198C12.9281 29.1525 12.5091 28.3001 12.7764 27.516L14.1962 28C12.7764 27.516 12.7767 27.5153 12.777 27.5145L12.7775 27.5129L12.7787 27.5095L12.7815 27.5014L12.7888 27.4809C12.7944 27.4653 12.8015 27.4459 12.8103 27.4228C12.8278 27.3767 12.8517 27.3161 12.8827 27.2429C12.9446 27.097 13.035 26.8997 13.1586 26.6683C13.4044 26.2081 13.7894 25.5974 14.3539 24.9841C15.5048 23.7338 17.3856 22.5 20.1962 22.5C23.0068 22.5 24.8876 23.7338 26.0385 24.9841C26.603 25.5974 26.988 26.2081 27.2338 26.6683C27.3574 26.8997 27.4478 27.097 27.5097 27.2429C27.5407 27.3161 27.5647 27.3767 27.5822 27.4228C27.5909 27.4459 27.5981 27.4653 27.6037 27.4809L27.6109 27.5014L27.6137 27.5095L27.6149 27.5129L27.6155 27.5145C27.6157 27.5153 27.616 27.516 26.1962 28L27.616 27.516C27.8833 28.3001 27.4643 29.1525 26.6802 29.4198C25.8997 29.6859 25.0516 29.272 24.7802 28.4948C24.7796 28.4934 24.7787 28.4909 24.7774 28.4874C24.7726 28.4749 24.7628 28.4496 24.7474 28.4133C24.7166 28.3406 24.6643 28.2253 24.5876 28.0817C24.4328 27.7919 24.1872 27.4026 23.8312 27.0159C23.1412 26.2662 22.022 25.5 20.1962 25.5C18.3705 25.5 17.2512 26.2662 16.5612 27.0159C16.2053 27.4026 15.9596 27.7919 15.8048 28.0817C15.7281 28.2253 15.6758 28.3406 15.645 28.4133C15.6296 28.4496 15.6198 28.4749 15.615 28.4874C15.6137 28.4909 15.6128 28.4933 15.6123 28.4948C15.6123 28.4948 15.6123 28.4948 15.6123 28.4948Z" fill="#3E1E00"/>
<path fill-rule="evenodd" clip-rule="evenodd" d="M39.6123 28.4948C39.3408 29.272 38.4927 29.6859 37.7122 29.4198C36.9281 29.1525 36.5091 28.3001 36.7764 27.516L38.1962 28C36.7764 27.516 36.7767 27.5153 36.777 27.5145L36.7775 27.5129L36.7787 27.5095L36.7815 27.5014L36.7888 27.4809C36.7944 27.4653 36.8015 27.4459 36.8103 27.4228C36.8278 27.3767 36.8517 27.3161 36.8827 27.2429C36.9446 27.097 37.035 26.8997 37.1586 26.6683C37.4044 26.2081 37.7894 25.5974 38.3539 24.9841C39.5048 23.7338 41.3856 22.5 44.1962 22.5C47.0068 22.5 48.8876 23.7338 50.0385 24.9841C50.603 25.5974 50.988 26.2081 51.2338 26.6683C51.3574 26.8997 51.4478 27.097 51.5097 27.2429C51.5407 27.3161 51.5647 27.3767 51.5822 27.4228C51.5909 27.4459 51.5981 27.4653 51.6037 27.4809L51.6109 27.5014L51.6137 27.5095L51.6149 27.5129L51.6155 27.5145C51.6157 27.5153 51.616 27.516 50.1962 28L51.616 27.516C51.8833 28.3001 51.4643 29.1525 50.6802 29.4198C49.8997 29.6859 49.0516 29.272 48.7802 28.4948C48.7796 28.4934 48.7787 28.4909 48.7774 28.4874C48.7726 28.4749 48.7628 28.4496 48.7474 28.4133C48.7166 28.3406 48.6643 28.2253 48.5876 28.0817C48.4328 27.7919 48.1872 27.4026 47.8312 27.0159C47.1412 26.2662 46.022 25.5 44.1962 25.5C42.3705 25.5 41.2512 26.2662 40.5612 27.0159C40.2053 27.4026 39.9596 27.7919 39.8048 28.0817C39.7281 28.2253 39.6758 28.3406 39.645 28.4133C39.6296 28.4496 39.6198 28.4749 39.615 28.4874C39.6137 28.4909 39.6128 28.4933 39.6123 28.4948C39.6123 28.4948 39.6123 28.4948 39.6123 28.4948Z" fill="#3E1E00"/>
</svg>
