<svg width="64" height="64" viewBox="0 0 64 64" fill="none" xmlns="http://www.w3.org/2000/svg">
<circle cx="32" cy="32" r="30" fill="#FFCC4D"/>
<circle cx="20" cy="29" r="4" fill="#3E1E00"/>
<circle cx="44" cy="29" r="4" fill="#3E1E00"/>
<path fill-rule="evenodd" clip-rule="evenodd" d="M31.6152 45.5499C31.5657 45.5631 31.5171 45.5788 31.4694 45.5969C31.2653 45.6738 31.0862 45.7919 30.9394 45.939C30.6619 46.2168 30.4994 46.598 30.4996 47C30.4995 47.1839 30.5335 47.3634 30.5969 47.5307C30.6738 47.7347 30.7918 47.9136 30.9388 48.0604C31.0859 48.2079 31.2654 48.3264 31.47 48.4034C31.5175 48.4213 31.5659 48.4369 31.6152 48.4501C31.6244 48.4529 31.6394 48.4575 31.6594 48.4641C31.7103 48.4809 31.7918 48.5096 31.8933 48.5518C32.1007 48.6379 32.3685 48.7705 32.6268 48.9555C33.1388 49.322 33.5 49.7954 33.5 50.5C33.5 51.2046 33.1388 51.678 32.6268 52.0445C32.3685 52.2295 32.1007 52.362 31.8933 52.4482C31.7918 52.4904 31.7103 52.5191 31.6594 52.5359C31.6341 52.5442 31.6169 52.5495 31.609 52.5518L31.6056 52.5528C30.8108 52.7693 30.3387 53.587 30.5501 54.3844C30.7624 55.1852 31.5837 55.6622 32.3844 55.4499L32 54C32.3844 55.4499 32.3851 55.4497 32.3857 55.4496L32.387 55.4492L32.3898 55.4485L32.3963 55.4467L32.4126 55.4422C32.425 55.4387 32.4403 55.4344 32.4584 55.429C32.4945 55.4184 32.5417 55.4039 32.5984 55.3852C32.7116 55.3479 32.8645 55.2933 33.0442 55.2187C33.3993 55.0712 33.8815 54.8359 34.3732 54.4839C35.3612 53.7765 36.5 52.5 36.5 50.5C36.5 48.8929 35.7646 47.7529 34.9631 47C35.7646 46.2471 36.5 45.1071 36.5 43.5C36.5 41.5 35.3612 40.2235 34.3732 39.5161C33.8815 39.1641 33.3993 38.9288 33.0442 38.7813C32.8645 38.7067 32.7116 38.6521 32.5984 38.6148C32.5417 38.5961 32.4945 38.5816 32.4584 38.571C32.4403 38.5656 32.425 38.5613 32.4126 38.5578L32.3963 38.5533L32.3898 38.5515L32.3857 38.5504C32.3851 38.5503 32.3845 38.5501 32.0065 39.9756L32.3844 38.5501C31.5837 38.3378 30.7624 38.8148 30.5501 39.6156C30.3387 40.413 30.8108 41.2307 31.6056 41.4472L31.609 41.4482C31.6169 41.4505 31.6341 41.4558 31.6594 41.4641C31.7103 41.4809 31.7918 41.5096 31.8933 41.5518C32.1007 41.6379 32.3685 41.7705 32.6268 41.9555C33.1388 42.322 33.5 42.7954 33.5 43.5C33.5 44.2046 33.1388 44.678 32.6268 45.0445C32.3685 45.2295 32.1007 45.362 31.8933 45.4482C31.7918 45.4904 31.7103 45.5191 31.6594 45.5359C31.6394 45.5425 31.6245 45.5471 31.6152 45.5499Z" fill="#3E1E00"/>
</svg>
