<svg width="64" height="64" viewBox="0 0 64 64" fill="none" xmlns="http://www.w3.org/2000/svg">
<circle cx="32" cy="32" r="30" fill="#FFCC4D"/>
<path fill-rule="evenodd" clip-rule="evenodd" d="M24.9774 30C24.9923 29.8562 25 29.7105 25 29.5632C25 27.043 22.7614 25 20 25C17.2386 25 15 27.043 15 29.5632C15 29.7105 15.0077 29.8562 15.0226 30C16.1642 29.0413 17.969 28.4224 20 28.4224C22.031 28.4224 23.8358 29.0413 24.9774 30Z" fill="#3E1E00"/>
<path fill-rule="evenodd" clip-rule="evenodd" d="M48.9795 29.9569C48.9931 29.8207 49 29.6828 49 29.5434C49 27.0341 46.7514 25 43.9775 25C41.2037 25 38.9551 27.0341 38.9551 29.5434C38.9551 29.6975 38.9636 29.8498 38.9801 29.9999C40.1253 29.0331 41.9501 28.4075 44.0056 28.4075C46.0305 28.4075 47.8315 29.0146 48.9795 29.9569Z" fill="#3E1E00"/>
<path d="M32 51C25.5863 51 22.0631 46.1083 20.354 42.5713C19.5067 40.818 20.8809 39 22.8282 39H41.1718C43.1191 39 44.4933 40.818 43.646 42.5713C41.9369 46.1083 38.4137 51 32 51Z" fill="#3E1E00"/>
<path d="M41.7316 40H22.2684C22.0965 40 21.9317 40.0683 21.8102 40.1898C21.6229 40.3771 21.5684 40.6597 21.6728 40.9032L22.2599 42.2731C22.7089 43.3207 23.739 44 24.8788 44H39.1212C40.261 44 41.2911 43.3207 41.7401 42.2731L42.3272 40.9032C42.4316 40.6597 42.3771 40.3771 42.1898 40.1898C42.0683 40.0683 41.9035 40 41.7316 40Z" fill="white"/>
<path d="M54.0802 37.9282C55.4609 40.3197 54.6415 43.3776 52.25 44.7583C49.8586 46.139 46.8006 45.3197 45.4199 42.9282C44.0392 40.5367 45.75 33.5 45.75 33.5C45.75 33.5 52.6995 35.5367 54.0802 37.9282Z" fill="#F1C24B"/>
<path d="M18.5802 42.9282C17.1995 45.3197 14.1415 46.139 11.75 44.7583C9.35859 43.3776 8.53921 40.3197 9.91992 37.9282C11.3006 35.5367 18.25 33.5 18.25 33.5C18.25 33.5 19.9609 40.5367 18.5802 42.9282Z" fill="#F1C24B"/>
<path d="M54.0802 36.2991C55.4609 38.6905 54.6415 41.7485 52.25 43.1292C49.8586 44.5099 46.8006 43.6905 45.4199 41.2991C44.0392 38.9076 45.75 31.8708 45.75 31.8708C45.75 31.8708 52.6995 33.9076 54.0802 36.2991Z" fill="#008CFF"/>
<path d="M18.5802 41.2991C17.1995 43.6905 14.1415 44.5099 11.75 43.1292C9.35859 41.7485 8.53921 38.6905 9.91992 36.2991C11.3006 33.9076 18.25 31.8708 18.25 31.8708C18.25 31.8708 19.9609 38.9076 18.5802 41.2991Z" fill="#008CFF"/>
<path d="M13.5 35C15.0883 34.3647 16.0712 34.133 16.5768 34.0485C16.835 34.0054 17.0739 34.1479 17.191 34.382C17.3616 34.7233 17.2233 35.1384 16.882 35.309L12.309 37.5955C11.8622 37.8189 11.3189 37.6378 11.0955 37.191C11.0327 37.0654 10.9999 36.9247 11.0519 36.7942C11.1888 36.4504 11.687 35.7252 13.5 35Z" fill="#47ACFF"/>
<path d="M50.5 35C48.9117 34.3647 47.9288 34.133 47.4232 34.0485C47.165 34.0054 46.9261 34.1479 46.809 34.382C46.6384 34.7233 46.7767 35.1384 47.118 35.309L51.691 37.5955C52.1378 37.8189 52.6811 37.6378 52.9045 37.191C52.9673 37.0654 53.0001 36.9247 52.9481 36.7942C52.8112 36.4504 52.313 35.7252 50.5 35Z" fill="#47ACFF"/>
</svg>
