<svg width="64" height="64" viewBox="0 0 64 64" fill="none" xmlns="http://www.w3.org/2000/svg">
<circle cx="32" cy="32" r="30" fill="#FFCC4D"/>
<path d="M32 51C25.5863 51 22.0631 46.1083 20.354 42.5713C19.5067 40.818 20.8809 39 22.8282 39H41.1718C43.1191 39 44.4933 40.818 43.646 42.5713C41.9369 46.1083 38.4137 51 32 51Z" fill="#3E1E00"/>
<path d="M41.7316 40H22.2684C22.0965 40 21.9317 40.0683 21.8102 40.1898C21.6229 40.3771 21.5684 40.6597 21.6728 40.9032L22.2599 42.2731C22.7089 43.3207 23.739 44 24.8788 44H39.1212C40.261 44 41.2911 43.3207 41.7401 42.2731L42.3272 40.9032C42.4316 40.6597 42.3771 40.3771 42.1898 40.1898C42.0683 40.0683 41.9035 40 41.7316 40Z" fill="white"/>
<path d="M25.1788 47.3585C26.4164 48.5183 28.6525 50 32 50C35.3475 50 37.5836 48.5183 38.8212 47.3585C39.3944 46.8214 38.9812 46 38.1958 46H25.8042C25.0188 46 24.6056 46.8214 25.1788 47.3585Z" fill="white"/>
<path fill-rule="evenodd" clip-rule="evenodd" d="M24.9774 30C24.9923 29.8562 25 29.7105 25 29.5632C25 27.043 22.7614 25 20 25C17.2386 25 15 27.043 15 29.5632C15 29.7105 15.0077 29.8562 15.0226 30C16.1642 29.0413 17.969 28.4224 20 28.4224C22.031 28.4224 23.8358 29.0413 24.9774 30Z" fill="#3E1E00"/>
<path fill-rule="evenodd" clip-rule="evenodd" d="M48.9795 29.9569C48.9931 29.8207 49 29.6828 49 29.5434C49 27.0341 46.7514 25 43.9775 25C41.2037 25 38.9551 27.0341 38.9551 29.5434C38.9551 29.6975 38.9636 29.8498 38.9801 29.9999C40.1253 29.0331 41.9501 28.4075 44.0056 28.4075C46.0305 28.4075 47.8315 29.0146 48.9795 29.9569Z" fill="#3E1E00"/>
<path d="M56 16C56 18.7614 53.7614 21 51 21C48.2386 21 46 18.7614 46 16C46 13.2386 51 8 51 8C51 8 56 13.2386 56 16Z" fill="#F1C24B"/>
<path d="M55.8145 14C55.8145 16.7614 53.5759 19 50.8145 19C48.053 19 45.8145 16.7614 45.8145 14C45.8145 11.2386 50.8145 6 50.8145 6C50.8145 6 55.8145 11.2386 55.8145 14Z" fill="#008CFF"/>
</svg>
