<svg width="64" height="64" viewBox="0 0 64 64" fill="none" xmlns="http://www.w3.org/2000/svg">
<g clip-path="url(#clip0_434_270)">
<circle cx="32.0003" cy="32" r="30" transform="rotate(-30 32.0003 32)" fill="#FFCC4D"/>
<path fill-rule="evenodd" clip-rule="evenodd" d="M21.1407 28.3414C21.0817 28.2094 21.0155 28.0794 20.9418 27.9518C19.6818 25.7693 16.7216 25.1193 14.3301 26.5C11.9387 27.8807 11.0215 30.7693 12.2816 32.9518C12.3553 33.0794 12.4347 33.2018 12.5196 33.3188C13.0289 31.9178 14.2824 30.4794 16.0413 29.4639C17.8002 28.4484 19.6727 28.082 21.1407 28.3414Z" fill="#3E1E00"/>
<path fill-rule="evenodd" clip-rule="evenodd" d="M41.9059 16.3031C41.8496 16.1783 41.7866 16.0554 41.7169 15.9347C40.4623 13.7616 37.4979 13.1243 35.0957 14.5112C32.6935 15.8981 31.7632 18.7841 33.0178 20.9572C33.0948 21.0906 33.1783 21.2182 33.2677 21.34C33.7761 19.9301 35.0436 18.476 36.8238 17.4482C38.5774 16.4358 40.4406 16.061 41.9059 16.3031Z" fill="#3E1E00"/>
<path d="M38.9081 45.0709C33.0125 48.4747 26.6371 44.5342 23.1397 41.6404C21.676 40.4294 22.0052 38.2346 23.6504 37.2848L39.794 27.9642C41.4392 27.0144 43.5045 27.8267 43.8215 29.6998C44.5789 34.1755 44.8037 41.6671 38.9081 45.0709Z" fill="#3E1E00"/>
<path d="M40.65 28.6247L23.7944 38.3563C23.6455 38.4422 23.5369 38.5837 23.4925 38.7497C23.4239 39.0057 23.518 39.2776 23.7302 39.4363L24.9235 40.3291C25.8362 41.0119 27.068 41.0851 28.055 40.5152L40.3893 33.394C41.3764 32.8241 41.9289 31.7208 41.7939 30.589L41.6174 29.1091C41.586 28.846 41.3976 28.6285 41.1417 28.5599C40.9757 28.5155 40.7988 28.5388 40.65 28.6247Z" fill="white"/>
<path d="M49.1509 20.5622C51.5423 21.9429 52.3617 25.0008 50.981 27.3923C49.6003 29.7837 46.5423 30.6031 44.1509 29.2224C41.7594 27.8417 39.7227 20.8923 39.7227 20.8923C39.7227 20.8923 46.7594 19.1814 49.1509 20.5622Z" fill="#F1C24B"/>
<path d="M21.2227 42.5623C21.2227 45.3237 18.9841 47.5623 16.2227 47.5623C13.4612 47.5623 11.2227 45.3237 11.2227 42.5623C11.2227 39.8008 16.2227 34.5623 16.2227 34.5623C16.2227 34.5623 21.2227 39.8008 21.2227 42.5623Z" fill="#F1C24B"/>
<path d="M49.4946 19.2453C51.8861 20.626 52.7054 23.6839 51.3247 26.0754C49.944 28.4669 46.8861 29.2862 44.4946 27.9055C42.1031 26.5248 40.0664 19.5754 40.0664 19.5754C40.0664 19.5754 47.1031 17.8646 49.4946 19.2453Z" fill="#008CFF"/>
<path d="M21.25 41.3254C21.25 44.0869 19.0114 46.3254 16.25 46.3254C13.4886 46.3254 11.25 44.0869 11.25 41.3254C11.25 38.564 16.25 33.3254 16.25 33.3254C16.25 33.3254 21.25 38.564 21.25 41.3254Z" fill="#008CFF"/>
<path d="M13.7012 38.4102C14.7591 37.0658 15.4944 36.3738 15.89 36.0478C16.092 35.8813 16.3703 35.8853 16.5887 36.0295C16.9071 36.2398 16.9948 36.6684 16.7846 36.9868L13.9675 41.2535C13.6923 41.6703 13.1312 41.7852 12.7143 41.5099C12.5971 41.4325 12.4984 41.3271 12.4782 41.1881C12.4248 40.8219 12.4937 39.9448 13.7012 38.4102Z" fill="#47ACFF"/>
<path d="M45.7441 19.9102C44.0509 20.1542 43.0839 20.445 42.6038 20.6246C42.3586 20.7163 42.2229 20.9592 42.2386 21.2205C42.2615 21.6014 42.5888 21.8917 42.9698 21.8688L48.0733 21.5625C48.5719 21.5326 48.9519 21.1041 48.922 20.6054C48.9136 20.4652 48.8716 20.327 48.7614 20.24C48.4709 20.0107 47.6769 19.6317 45.7441 19.9102Z" fill="#47ACFF"/>
</g>
<defs>
<clipPath id="clip0_434_270">
<rect width="64" height="64" fill="white"/>
</clipPath>
</defs>
</svg>
