<svg width="64" height="64" viewBox="0 0 64 64" fill="none" xmlns="http://www.w3.org/2000/svg">
<circle cx="32" cy="32" r="30" fill="url(#paint0_linear_442_89)"/>
<ellipse cx="19" cy="26" rx="6" ry="7" fill="white"/>
<ellipse cx="45" cy="26" rx="6" ry="7" fill="white"/>
<ellipse cx="32" cy="42.5" rx="7" ry="8.5" fill="white"/>
<path d="M10.4996 52.6901V59.9015C10.4996 62.165 12.3345 64 14.5981 64C16.5704 64 18.263 62.5953 18.6264 60.6568L20.0664 52.9771C20.6681 49.768 20.0875 46.4495 18.4321 43.6353L12.9932 34.3891C11.8227 32.3993 9.44453 31.4665 7.23341 32.1298C4.08387 33.0747 2.68227 36.7454 4.40057 39.549L8.83252 46.78C9.92262 48.5586 10.4996 50.6041 10.4996 52.6901Z" fill="#DFB03B"/>
<path d="M11.6002 51.8878V58.7458C11.6002 60.543 13.0571 62 14.8544 62C16.4403 62 17.7953 60.8567 18.0622 59.2933L19.3067 52.0025C19.7562 49.369 19.3155 46.6608 18.0544 44.3057L13.6286 36.0409C12.6871 34.2827 10.6182 33.4554 8.72398 34.0796C6.27401 34.887 5.16669 37.7271 6.42357 39.9797L10.3186 46.9607C11.159 48.4669 11.6002 50.163 11.6002 51.8878Z" fill="#FFCC4D"/>
<path d="M53.5004 52.6901V59.9015C53.5004 62.165 51.6655 64 49.4019 64C47.4296 64 45.737 62.5953 45.3736 60.6568L43.9336 52.9771C43.3319 49.768 43.9125 46.4495 45.5679 43.6353L51.0068 34.3891C52.1773 32.3993 54.5555 31.4665 56.7666 32.1298C59.9161 33.0747 61.3177 36.7454 59.5994 39.549L55.1675 46.78C54.0774 48.5586 53.5004 50.6041 53.5004 52.6901Z" fill="#DFB03B"/>
<path d="M52.4003 51.8878V58.7458C52.4003 60.543 50.9434 62 49.1461 62C47.5602 62 46.2052 60.8567 45.9383 59.2933L44.6938 52.0025C44.2443 49.369 44.685 46.6608 45.9461 44.3057L50.3719 36.0409C51.3134 34.2827 53.3823 33.4554 55.2765 34.0796C57.7265 34.887 58.8338 37.7271 57.5769 39.9797L53.6819 46.9607C52.8415 48.4669 52.4003 50.163 52.4003 51.8878Z" fill="#FFCC4D"/>
<defs>
<linearGradient id="paint0_linear_442_89" x1="32" y1="2" x2="32" y2="62" gradientUnits="userSpaceOnUse">
<stop stop-color="#6ABCFF"/>
<stop offset="1" stop-color="#FFCC4D"/>
</linearGradient>
</defs>
</svg>
