<svg width="64" height="64" viewBox="0 0 64 64" fill="none" xmlns="http://www.w3.org/2000/svg">
<circle cx="32" cy="32" r="30" fill="#FFCC4D"/>
<path d="M43 47C43 47 40.5 39 32 39C23.5 39 21 47 21 47C21 47 23 39.5 32 39.5C41 39.5 43 47 43 47Z" stroke="#3E1E00" stroke-width="4" stroke-linecap="round"/>
<path fill-rule="evenodd" clip-rule="evenodd" d="M22.7225 21.5475C22.5689 20.7387 23.0965 19.9562 23.9055 19.7964C24.7182 19.6358 25.5072 20.1645 25.6677 20.9772L24.1962 21.2679C25.6677 20.9772 25.6679 20.978 25.668 20.9788L25.6684 20.9804L25.6691 20.984L25.6706 20.9923L25.6746 21.0137C25.6775 21.0301 25.6811 21.0505 25.685 21.0748C25.6929 21.1235 25.7025 21.188 25.7122 21.2668C25.7316 21.4242 25.7519 21.6402 25.7606 21.9024C25.7778 22.4239 25.7497 23.1453 25.5675 23.9586C25.196 25.6169 24.1841 27.6258 21.75 29.0311C19.316 30.4364 17.0703 30.3083 15.4484 29.8009C14.6529 29.552 14.0141 29.2157 13.5711 28.94C13.3484 28.8014 13.1714 28.6758 13.0449 28.5803C12.9815 28.5325 12.9304 28.492 12.8922 28.4608C12.8731 28.4452 12.8572 28.4319 12.8445 28.4212L12.828 28.4071L12.8215 28.4015L12.8188 28.3991L12.8175 28.398C12.8169 28.3975 12.8163 28.397 13.8039 27.2679L12.8163 28.397C12.1928 27.8516 12.1294 26.904 12.6748 26.2804C13.2177 25.6597 14.1592 25.5941 14.7828 26.1314C14.784 26.1324 14.786 26.1341 14.7889 26.1365C14.7993 26.1449 14.8205 26.1619 14.8519 26.1856C14.915 26.2332 15.0179 26.3069 15.1561 26.3929C15.435 26.5665 15.8425 26.7808 16.3441 26.9377C17.3165 27.2419 18.6689 27.3459 20.25 26.433C21.8312 25.5201 22.4173 24.2969 22.6401 23.3027C22.755 22.7899 22.7731 22.3299 22.7622 22.0015C22.7569 21.8388 22.7445 21.7128 22.7348 21.6344C22.73 21.5953 22.7259 21.5685 22.7238 21.5553C22.7232 21.5516 22.7227 21.549 22.7225 21.5475C22.7225 21.5475 22.7225 21.5475 22.7225 21.5475Z" fill="#3E1E00"/>
<path fill-rule="evenodd" clip-rule="evenodd" d="M49.2173 26.1314C49.8409 25.5941 50.7824 25.6597 51.3253 26.2804C51.8707 26.904 51.8074 27.8516 51.1838 28.397L50.1963 27.268C51.1838 28.397 51.1832 28.3975 51.1826 28.398L51.1814 28.3991L51.1786 28.4015L51.1722 28.4071L51.1556 28.4212C51.143 28.4319 51.127 28.4452 51.1079 28.4608C51.0697 28.492 51.0186 28.5325 50.9552 28.5803C50.8287 28.6758 50.6517 28.8014 50.429 28.94C49.986 29.2157 49.3472 29.552 48.5517 29.8009C46.9298 30.3083 44.6842 30.4364 42.2501 29.0311C39.816 27.6258 38.8041 25.6169 38.4326 23.9586C38.2504 23.1453 38.2223 22.4239 38.2395 21.9024C38.2482 21.6402 38.2685 21.4242 38.2879 21.2668C38.2976 21.188 38.3072 21.1235 38.3151 21.0748C38.319 21.0505 38.3226 21.0301 38.3255 21.0137L38.3295 20.9924L38.3311 20.984L38.3318 20.9804L38.3321 20.9788C38.3322 20.978 38.3324 20.9772 39.8039 21.268L38.3324 20.9772C38.4929 20.1645 39.2819 19.6358 40.0947 19.7964C40.9037 19.9562 41.4312 20.7387 41.2777 21.5475C41.2774 21.549 41.277 21.5516 41.2764 21.5553C41.2742 21.5685 41.2701 21.5953 41.2653 21.6344C41.2556 21.7128 41.2433 21.8388 41.2379 22.0015C41.227 22.3299 41.2451 22.7899 41.36 23.3028C41.5828 24.2969 42.1689 25.5201 43.7501 26.433C45.3313 27.3459 46.6837 27.2419 47.656 26.9377C48.1577 26.7808 48.5651 26.5665 48.844 26.3929C48.9822 26.3069 49.0851 26.2332 49.1482 26.1856C49.1797 26.1619 49.2008 26.1449 49.2112 26.1365C49.2141 26.1341 49.2161 26.1324 49.2173 26.1315C49.2173 26.1314 49.2173 26.1314 49.2173 26.1314Z" fill="#3E1E00"/>
<circle cx="21" cy="47" r="2" fill="#3E1E00"/>
<circle cx="43" cy="47" r="2" fill="#3E1E00"/>
</svg>
