<svg width="64" height="64" viewBox="0 0 64 64" fill="none" xmlns="http://www.w3.org/2000/svg">
<circle cx="32" cy="32" r="30" fill="#FFCC4D"/>
<circle cx="20" cy="29" r="4" fill="#3E1E00"/>
<circle cx="44" cy="29" r="4" fill="#3E1E00"/>
<path d="M32 51C25.5863 51 22.0631 46.1083 20.354 42.5713C19.5067 40.818 20.8809 39 22.8282 39H41.1718C43.1191 39 44.4933 40.818 43.646 42.5713C41.9369 46.1083 38.4137 51 32 51Z" fill="#3E1E00"/>
<path d="M41.7316 40H22.2684C22.0965 40 21.9317 40.0683 21.8102 40.1898C21.6229 40.3771 21.5684 40.6597 21.6728 40.9032L22.2599 42.2731C22.7089 43.3207 23.739 44 24.8788 44H39.1212C40.261 44 41.2911 43.3207 41.7401 42.2731L42.3272 40.9032C42.4316 40.6597 42.3771 40.3771 42.1898 40.1898C42.0683 40.0683 41.9035 40 41.7316 40Z" fill="white"/>
<path d="M25.1788 47.3585C26.4164 48.5183 28.6525 50 32 50C35.3475 50 37.5836 48.5183 38.8212 47.3585C39.3944 46.8214 38.9812 46 38.1958 46H25.8042C25.0188 46 24.6056 46.8214 25.1788 47.3585Z" fill="white"/>
</svg>
