<svg width="64" height="64" viewBox="0 0 64 64" fill="none" xmlns="http://www.w3.org/2000/svg">
<circle cx="32" cy="32" r="30" fill="#FFCC4D"/>
<path fill-rule="evenodd" clip-rule="evenodd" d="M42.2002 41.1459C43.2241 41.5602 43.7184 42.7261 43.3041 43.75L41.4501 42.9999C43.3041 43.75 43.3036 43.7514 43.3036 43.7514L43.3018 43.7558L43.2989 43.7627L43.2919 43.7796C43.2867 43.7922 43.2802 43.8075 43.2724 43.8255C43.2569 43.8613 43.2364 43.9075 43.2107 43.963C43.1593 44.0739 43.0868 44.2225 42.9916 44.3995C42.8023 44.7519 42.5185 45.2259 42.1272 45.742C41.3531 46.7631 40.0952 48.0298 38.2394 48.7695C36.5066 49.4602 34.0391 49.8115 31.5196 49.8544C28.965 49.8979 26.1441 49.628 23.6477 48.9357C22.5833 48.6405 21.9597 47.5384 22.2549 46.474C22.5501 45.4096 23.6522 44.786 24.7166 45.0812C26.7643 45.649 29.1897 45.8935 31.4515 45.855C33.7482 45.8159 35.6671 45.4887 36.7584 45.0538C37.7267 44.6678 38.4444 43.9787 38.9398 43.3253C39.1833 43.0042 39.3578 42.7114 39.4681 42.5062C39.5228 42.4044 39.5604 42.3266 39.5817 42.2807C39.5923 42.2578 39.5987 42.2431 39.6011 42.2375V42.2375C40.02 41.2225 41.1806 40.7334 42.2002 41.1459Z" fill="#3E1E00"/>
<path fill-rule="evenodd" clip-rule="evenodd" d="M39.2899 25C39.1013 25.6337 39 26.305 39 27C39 30.866 42.134 34 46 34C49.866 34 53 30.866 53 27C53 26.305 52.8987 25.6337 52.7101 25H39.2899Z" fill="white"/>
<path fill-rule="evenodd" clip-rule="evenodd" d="M43.5351 25C43.1948 25.5883 43 26.2714 43 27C43 29.2091 44.7909 31 47 31C49.2091 31 51 29.2091 51 27C51 26.2714 50.8052 25.5883 50.4649 25H43.5351Z" fill="#3E1E00"/>
<path fill-rule="evenodd" clip-rule="evenodd" d="M15.2899 25C15.1013 25.6337 15 26.305 15 27C15 30.866 18.134 34 22 34C25.866 34 29 30.866 29 27C29 26.305 28.8987 25.6337 28.7101 25H15.2899Z" fill="white"/>
<path fill-rule="evenodd" clip-rule="evenodd" d="M19.5351 25C19.1948 25.5883 19 26.2714 19 27C19 29.2091 20.7909 31 23 31C25.2091 31 27 29.2091 27 27C27 26.2714 26.8052 25.5883 26.4649 25H19.5351Z" fill="#3E1E00"/>
</svg>
