<svg width="64" height="64" viewBox="0 0 64 64" fill="none" xmlns="http://www.w3.org/2000/svg">
<circle cx="32" cy="32" r="30" fill="#FFCC4D"/>
<circle cx="20" cy="29" r="4" fill="#3E1E00"/>
<circle cx="44" cy="29" r="4" fill="#3E1E00"/>
<path fill-rule="evenodd" clip-rule="evenodd" d="M39.2006 44.5879C37.8149 43.0482 35.5764 41.5 31.9997 41.5C28.4231 41.5 26.1845 43.0482 24.7988 44.5879C24.0919 45.3734 23.6044 46.1633 23.296 46.7539C23.1427 47.0474 23.0364 47.2863 22.9714 47.4432C22.939 47.5215 22.9171 47.5788 22.9049 47.6116C22.8988 47.628 22.8952 47.6383 22.8939 47.6419L22.8959 47.6359L22.8965 47.6343C22.8965 47.6343 22.8967 47.6336 22.8042 47.6025L19.0908 46.4032C19.1288 46.2818 19.8536 43.9969 21.7852 41.7084C23.7569 39.3724 27.0276 37 31.9997 37C36.9732 37 40.2443 39.3737 42.2158 41.7103C43.1896 42.8644 43.8521 44.0117 44.2725 44.8706C44.4838 45.3021 44.637 45.667 44.74 45.9322C44.7916 46.0649 44.8307 46.1732 44.8585 46.253C44.8724 46.2929 44.8834 46.3257 44.8917 46.3509L44.9022 46.383L44.9059 46.3947L44.9074 46.3995L44.9081 46.4016C44.9081 46.4016 44.9087 46.4034 42.9997 47L44.9087 46.4034L41.1947 47.6026C41.1027 47.6336 41.1029 47.6343 41.1029 47.6343L41.1035 47.6359L41.1055 47.6419C41.1042 47.6383 41.1006 47.628 41.0945 47.6116C41.0823 47.5788 41.0604 47.5215 41.028 47.4432C40.963 47.2863 40.8567 47.0474 40.7034 46.7539C40.395 46.1633 39.9076 45.3734 39.2006 44.5879ZM41.1055 47.6419V47.6419ZM41.0928 47.6032C41.0936 47.6057 41.0935 47.6054 41.0935 47.6054L41.0928 47.6032Z" fill="#3E1E00"/>
<path d="M23 47C23 48.1046 22.1046 49 21 49C19.8954 49 19 48.1046 19 47C19 45.8954 19.8954 45 21 45C22.1046 45 23 45.8954 23 47Z" fill="#3E1E00"/>
<path d="M45 47C45 48.1046 44.1046 49 43 49C41.8954 49 41 48.1046 41 47C41 45.8954 41.8954 45 43 45C44.1046 45 45 45.8954 45 47Z" fill="#3E1E00"/>
</svg>
