<svg width="64" height="64" viewBox="0 0 64 64" fill="none" xmlns="http://www.w3.org/2000/svg">
<circle cx="32" cy="32" r="30" fill="#FFCC4D"/>
<circle cx="20" cy="29" r="4" fill="#3E1E00"/>
<circle cx="44" cy="29" r="4" fill="#3E1E00"/>
<path fill-rule="evenodd" clip-rule="evenodd" d="M24.7994 43.4121C26.1851 44.9518 28.4236 46.5 32.0003 46.5C35.5769 46.5 37.8155 44.9518 39.2012 43.4121C39.9081 42.6266 40.3956 41.8367 40.704 41.2461C40.8573 40.9526 40.9636 40.7137 41.0286 40.5568C41.061 40.4785 41.0829 40.4212 41.0951 40.3884C41.1012 40.372 41.1048 40.3617 41.1061 40.3581L41.1041 40.3641L41.1035 40.3657C41.1035 40.3657 41.1033 40.3664 41.1958 40.3975L44.9092 41.5968C44.8712 41.7182 44.1464 44.0031 42.2148 46.2916C40.2431 48.6276 36.9724 51 32.0003 51C27.0268 51 23.7557 48.6263 21.7842 46.2897C20.8104 45.1356 20.1479 43.9883 19.7275 43.1294C19.5162 42.6979 19.363 42.333 19.26 42.0678C19.2084 41.9351 19.1693 41.8268 19.1415 41.747C19.1276 41.7071 19.1166 41.6743 19.1083 41.6491L19.0978 41.617L19.0941 41.6053L19.0926 41.6005L19.0919 41.5985C19.0919 41.5985 19.0913 41.5966 21.0003 41L19.0913 41.5966L22.8053 40.3974C22.8973 40.3664 22.8971 40.3657 22.8971 40.3657L22.8965 40.3641L22.8945 40.3581C22.8958 40.3617 22.8994 40.372 22.9055 40.3884C22.9177 40.4212 22.9396 40.4785 22.972 40.5568C23.037 40.7137 23.1433 40.9526 23.2966 41.2461C23.605 41.8367 24.0924 42.6266 24.7994 43.4121ZM22.8945 40.3581V40.3581ZM22.9072 40.3968C22.9064 40.3943 22.9065 40.3946 22.9065 40.3946L22.9072 40.3968Z" fill="#3E1E00"/>
<path d="M41 41C41 39.8954 41.8954 39 43 39C44.1046 39 45 39.8954 45 41C45 42.1046 44.1046 43 43 43C41.8954 43 41 42.1046 41 41Z" fill="#3E1E00"/>
<path d="M19 41C19 39.8954 19.8954 39 21 39C22.1046 39 23 39.8954 23 41C23 42.1046 22.1046 43 21 43C19.8954 43 19 42.1046 19 41Z" fill="#3E1E00"/>
</svg>
