<svg width="64" height="64" viewBox="0 0 64 64" fill="none" xmlns="http://www.w3.org/2000/svg">
<circle cx="32" cy="32" r="30" fill="#FFCC4D"/>
<path fill-rule="evenodd" clip-rule="evenodd" d="M39.2006 44.5879C37.8149 43.0482 35.5764 41.5 31.9997 41.5C28.4231 41.5 26.1845 43.0482 24.7988 44.5879C24.0919 45.3734 23.6044 46.1633 23.296 46.7539C23.1427 47.0474 23.0364 47.2863 22.9714 47.4432C22.939 47.5215 22.9171 47.5788 22.9049 47.6116C22.8988 47.628 22.8952 47.6383 22.8939 47.6419L22.8959 47.6359L22.8965 47.6343C22.8965 47.6343 22.8967 47.6336 22.8042 47.6025L19.0908 46.4032C19.1288 46.2818 19.8536 43.9969 21.7852 41.7084C23.7569 39.3724 27.0276 37 31.9997 37C36.9732 37 40.2443 39.3737 42.2158 41.7103C43.1896 42.8644 43.8521 44.0117 44.2725 44.8706C44.4838 45.3021 44.637 45.667 44.74 45.9322C44.7916 46.0649 44.8307 46.1732 44.8585 46.253C44.8724 46.2929 44.8834 46.3257 44.8917 46.3509L44.9022 46.383L44.9059 46.3947L44.9074 46.3995L44.9081 46.4016C44.9081 46.4016 44.9087 46.4034 42.9997 47L44.9087 46.4034L41.1947 47.6026C41.1027 47.6336 41.1029 47.6343 41.1029 47.6343L41.1035 47.6359L41.1055 47.6419C41.1042 47.6383 41.1006 47.628 41.0945 47.6116C41.0823 47.5788 41.0604 47.5215 41.028 47.4432C40.963 47.2863 40.8567 47.0474 40.7034 46.7539C40.395 46.1633 39.9076 45.3734 39.2006 44.5879ZM41.1055 47.6419V47.6419ZM41.0928 47.6032C41.0936 47.6057 41.0935 47.6054 41.0935 47.6054L41.0928 47.6032Z" fill="#3E1E00"/>
<path d="M23 47C23 48.1046 22.1046 49 21 49C19.8954 49 19 48.1046 19 47C19 45.8954 19.8954 45 21 45C22.1046 45 23 45.8954 23 47Z" fill="#3E1E00"/>
<path d="M45 47C45 48.1046 44.1046 49 43 49C41.8954 49 41 48.1046 41 47C41 45.8954 41.8954 45 43 45C44.1046 45 45 45.8954 45 47Z" fill="#3E1E00"/>
<path fill-rule="evenodd" clip-rule="evenodd" d="M39.0226 23C39.0077 23.1438 39 23.2895 39 23.4368C39 25.957 41.2386 28 44 28C46.7614 28 49 25.957 49 23.4368C49 23.2895 48.9923 23.1438 48.9774 23C47.8358 23.9587 46.031 24.5776 44 24.5776C41.969 24.5776 40.1642 23.9587 39.0226 23Z" fill="#3E1E00"/>
<path fill-rule="evenodd" clip-rule="evenodd" d="M15.0205 23.0431C15.0069 23.1793 15 23.3172 15 23.4566C15 25.9659 17.2486 28 20.0225 28C22.7963 28 25.0449 25.9659 25.0449 23.4566C25.0449 23.3025 25.0364 23.1502 25.0199 23.0001C23.8747 23.9669 22.0499 24.5925 19.9944 24.5925C17.9695 24.5925 16.1685 23.9854 15.0205 23.0431Z" fill="#3E1E00"/>
<path d="M49 39C49 41.7614 46.7614 44 44 44C41.2386 44 39 41.7614 39 39C39 36.2386 44 31 44 31C44 31 49 36.2386 49 39Z" fill="black" fill-opacity="0.13"/>
<path d="M49 37C49 39.7614 46.7614 42 44 42C41.2386 42 39 39.7614 39 37C39 34.2386 44 29 44 29C44 29 49 34.2386 49 37Z" fill="#008CFF"/>
<path d="M46.5488 34.085C45.4909 32.7406 44.7556 32.0486 44.36 31.7226C44.158 31.5562 43.8797 31.5601 43.6613 31.7043C43.3429 31.9146 43.2552 32.3432 43.4654 32.6617L46.2825 36.9283C46.5577 37.3451 47.1188 37.46 47.5357 37.1847C47.6529 37.1074 47.7516 37.0019 47.7718 36.8629C47.8252 36.4968 47.7563 35.6196 46.5488 34.085Z" fill="#47ACFF"/>
</svg>
